<?xml version="1.0" standalone="no"?><!DOCTYPE svg PUBLIC "-//W3C//DTD SVG 1.1//EN" "http://www.w3.org/Graphics/SVG/1.1/DTD/svg11.dtd"><svg t="1653554315831" class="icon" viewBox="0 0 1024 1024" version="1.1" xmlns="http://www.w3.org/2000/svg" p-id="2147" xmlns:xlink="http://www.w3.org/1999/xlink" width="200" height="200"><defs><style type="text/css">@font-face { font-family: feedback-iconfont; src: url("//at.alicdn.com/t/font_1031158_u69w8yhxdu.woff2?t=1630033759944") format("woff2"), url("//at.alicdn.com/t/font_1031158_u69w8yhxdu.woff?t=1630033759944") format("woff"), url("//at.alicdn.com/t/font_1031158_u69w8yhxdu.ttf?t=1630033759944") format("truetype"); }
</style></defs><path d="M419 325.66666667c-6.75-3.75-13.5-5.25-21-5.25-9.75 0-18 3.75-23.25 11.25s-9 18-9 30h0.75c6-9 15-14.25 27-14.25 10.5 0 19.5 3.75 25.5 11.25s9.75 16.5 9.75 28.5c0 12.75-3.75 23.25-12 31.5s-18.75 12.75-31.5 12.75c-14.25 0-25.5-5.25-33.75-15.75-7.5-10.5-12-24.75-12-43.5 0-21.75 5.25-39 15-52.5 9.75-13.5 24-20.25 42-20.25 9.75 0 17.25 1.5 22.5 3.75v22.5z m-53.25 61.5c0 6.75 1.5 12 5.25 16.5s7.5 6.75 12.75 6.75 9.75-2.25 12.75-6c3-4.5 4.5-9.75 4.5-15.75 0-14.25-6-21.75-18-21.75-5.25 0-9.75 2.25-12.75 6-2.25 3.75-4.5 8.25-4.5 14.25z m74.25-19.5c0-21.75 3.75-39 12-50.25s19.5-17.25 35.25-17.25c29.25 0 44.25 21.75 44.25 65.25 0 21-3.75 37.5-12 49.5-8.25 11.25-19.5 17.25-34.5 17.25-30-0.75-45-21.75-45-64.5z m27-0.75c0 29.25 6 44.25 18.75 44.25 12 0 18.75-15 18.75-45s-6-45.75-18-45.75c-13.5 0-19.5 15-19.5 46.5z m78-32.25c0-10.5 3-18.75 9-24.75 6-6 13.5-9.75 23.25-9.75s16.5 3 21.75 8.25c5.25 6 7.5 13.5 7.5 23.25 0 10.5-3 18.75-9 24.75s-13.5 9-23.25 9c-9 0-16.5-3-21.75-9-4.5-4.5-7.5-12-7.5-21.75z m18-0.75c0 12 4.5 18 12.75 18 9 0 13.5-6 13.5-18.75 0-12-4.5-18-12.75-18-9 0-13.5 6-13.5 18.75z m104.25-32.25l-82.5 127.5h-21l82.5-127.5h21z m-42.75 97.5c0-10.5 3-18.75 9-24.75 6-6 13.5-9 23.25-9s16.5 3 21.75 8.25c5.25 5.25 7.5 13.5 7.5 23.25 0 10.5-3 18.75-9 24.75-5.25 6-13.5 9-22.5 9s-16.5-3-21.75-9c-6-5.25-8.25-12.75-8.25-22.5z m18-0.75c0 12 4.5 18 12.75 18 9 0 13.5-6 13.5-18.75 0-6-1.5-10.5-3.75-13.5s-5.25-4.5-9-4.5c-9.75 0-13.5 6-13.5 18.75zM854.75 732.91666667H169.25c-56.25 0-102-45.75-102-102s45.75-102 102-102h686.25c56.25 0 102 45.75 102 102s-46.5 102-102.75 102zM169.25 541.66666667c-49.5 0-89.25 39.75-89.25 89.25s39.75 89.25 89.25 89.25h686.25c49.5 0 89.25-39.75 89.25-89.25s-39.75-89.25-89.25-89.25H169.25z" fill="#08af4f" p-id="2148"></path><path d="M515 558.91666667c-3.75-0.75-8.25-0.75-12-0.75H173.75c-12.75 0-24.75 3.75-35.25 9.75-22.5 12.75-37.5 36-37.5 63.75 0 36.75 27.75 67.5 63 72 3 0.75 6.75 0.75 9.75 0.75h329.25c13.5 0 26.25-3.75 37.5-10.5 21-12.75 35.25-36 35.25-62.25 0-36.75-26.25-66.75-60.75-72.75z" fill="#08af4f" p-id="2149"></path></svg>