<?xml version="1.0" standalone="no"?><!DOCTYPE svg PUBLIC "-//W3C//DTD SVG 1.1//EN" "http://www.w3.org/Graphics/SVG/1.1/DTD/svg11.dtd"><svg t="1645106512075" class="icon" viewBox="0 0 1137 1024" version="1.1" xmlns="http://www.w3.org/2000/svg" p-id="21597" xmlns:xlink="http://www.w3.org/1999/xlink" width="19.986328125" height="18"><defs><style type="text/css"></style></defs><path d="M1024 0H113.777778a113.777778 113.777778 0 0 0-113.777778 113.777778v682.666666a113.777778 113.777778 0 0 0 113.777778 113.777778h253.724444A270.791111 270.791111 0 0 1 341.333333 796.444444H193.991111l174.08-174.08 21.617778 21.617778a357.831111 357.831111 0 0 1 77.937778-83.057778l-56.888889-56.888888a56.888889 56.888889 0 0 0-42.097778-15.928889 56.888889 56.888889 0 0 0-41.528889 15.928889L113.777778 716.231111V113.777778h910.222222v387.413333A455.111111 455.111111 0 0 1 1137.777778 568.888889V113.777778a113.777778 113.777778 0 0 0-113.777778-113.777778z" p-id="21598" fill="#C1C6C8"></path><path d="M796.444444 568.888889c-188.302222 0-341.333333 101.831111-341.333333 227.555555s153.031111 227.555556 341.333333 227.555556 341.333333-101.831111 341.333334-227.555556-153.031111-227.555556-341.333334-227.555555z m0 341.333333c-125.724444 0-227.555556-51.2-227.555555-113.777778s101.831111-113.777778 227.555555-113.777777 227.555556 51.2 227.555556 113.777777-101.831111 113.777778-227.555556 113.777778z" p-id="21599" fill="#C1C6C8"></path><path d="M796.444444 796.444444m-56.888888 0a56.888889 56.888889 0 1 0 113.777777 0 56.888889 56.888889 0 1 0-113.777777 0Z" p-id="21600" fill="#C1C6C8"></path><path d="M796.444444 341.333333m-113.777777 0a113.777778 113.777778 0 1 0 227.555555 0 113.777778 113.777778 0 1 0-227.555555 0Z" p-id="21601" fill="#C1C6C8"></path></svg>