<?xml version="1.0" standalone="no"?><!DOCTYPE svg PUBLIC "-//W3C//DTD SVG 1.1//EN" "http://www.w3.org/Graphics/SVG/1.1/DTD/svg11.dtd"><svg t="1638536542050" class="icon" viewBox="0 0 1024 1024" version="1.1" xmlns="http://www.w3.org/2000/svg" p-id="3127" xmlns:xlink="http://www.w3.org/1999/xlink" width="200" height="200"><defs><style type="text/css"></style></defs><path d="M661.3 302.2H341c-39.5 0-71.6-32.1-71.6-71.6v-81.1c0-39.5 32.1-71.6 71.6-71.6h320.4c39.5 0 71.6 32.1 71.6 71.6v81.1c0 39.4-32.2 71.6-71.7 71.6zM341 139.8c-5.3 0-9.6 4.3-9.6 9.6v81.1c0 5.3 4.3 9.6 9.6 9.6h320.4c5.3 0 9.6-4.3 9.6-9.6v-81.1c0-5.3-4.3-9.6-9.6-9.6H341zM584.9 951.4H431.5c-39.2 0-71-31.9-71-71V749c0-39.2 31.9-71 71-71H585c39.2 0 71 31.9 71 71v131.4c-0.1 39.2-31.9 71-71.1 71zM431.5 740c-5 0-9 4-9 9v131.4c0 5 4 9 9 9H585c5 0 9-4 9-9V749c0-5-4-9-9-9H431.5zM249.7 951.4H96.3c-39.2 0-71-31.9-71-71V749c0-39.2 31.9-71 71-71h153.5c39.2 0 71 31.9 71 71v131.4c-0.1 39.2-31.9 71-71.1 71zM96.3 740c-5 0-9 4-9 9v131.4c0 5 4 9 9 9h153.5c5 0 9-4 9-9V749c0-5-4-9-9-9H96.3zM920.3 951.4H766.9c-39.2 0-71-31.9-71-71V749c0-39.2 31.9-71 71-71h153.5c39.2 0 71 31.9 71 71v131.4c0 39.2-31.9 71-71.1 71zM766.9 740c-5 0-9 4-9 9v131.4c0 5 4 9 9 9h153.5c5 0 9-4 9-9V749c0-5-4-9-9-9H766.9z" p-id="3128"></path><path d="M845.6 693.8h-62V484.3c0-6.8-5.5-12.3-12.3-12.3H214.5c-6.8 0-12.3 5.5-12.3 12.3v209.5h-62V484.3c0-41 33.3-74.3 74.3-74.3h556.8c41 0 74.3 33.3 74.3 74.3v209.5z" p-id="3129"></path><path d="M470.2 277.9h62v420.3h-62z" p-id="3130"></path></svg>