<?xml version="1.0" standalone="no"?><!DOCTYPE svg PUBLIC "-//W3C//DTD SVG 1.1//EN" "http://www.w3.org/Graphics/SVG/1.1/DTD/svg11.dtd"><svg t="1638324607188" class="icon" viewBox="0 0 1024 1024" version="1.1" xmlns="http://www.w3.org/2000/svg" p-id="14541" xmlns:xlink="http://www.w3.org/1999/xlink" width="200" height="200"><defs><style type="text/css"></style></defs><path d="M547 437c0 22 18 40 40 40h333c22 0 40-18 40-40V104c0-22-18-40-40-40H587c-22 0-40 18-40 40v333zM437 477c22 0 40-18 40-40V104c0-22-18-40-40-40H104c-22 0-40 18-40 40v333c0 22 18 40 40 40h333zM477 587c0-22-18-40-40-40H104c-22 0-40 18-40 40v333c0 22 18 40 40 40h333c22 0 40-18 40-40V587zM587 547c-22 0-40 18-40 40v333c0 22 18 40 40 40h333c22 0 40-18 40-40V587c0-22-18-40-40-40H587z" p-id="14542"></path></svg>