<?xml version="1.0" standalone="no"?><!DOCTYPE svg PUBLIC "-//W3C//DTD SVG 1.1//EN" "http://www.w3.org/Graphics/SVG/1.1/DTD/svg11.dtd"><svg t="1638322798333" class="icon" viewBox="0 0 1024 1024" version="1.1" xmlns="http://www.w3.org/2000/svg" p-id="3205" xmlns:xlink="http://www.w3.org/1999/xlink" width="200" height="200"><defs><style type="text/css"></style></defs><path d="M512 0C230.4 0 0 230.4 0 512s230.4 512 512 512 512-230.4 512-512-230.4-512-512-512z m0 938.666667c-238.933333 0-426.666667-187.733333-426.666667-426.666667s187.733333-426.666667 426.666667-426.666667 426.666667 187.733333 426.666667 426.666667-187.733333 426.666667-426.666667 426.666667z" fill="#333333" p-id="3206" data-spm-anchor-id="a313x.7781069.0.i4" class="selected"></path><path d="M665.6 298.666667L512 452.266667 358.4 298.666667l-59.733333 59.733333L452.266667 512 298.666667 665.6l59.733333 59.733333L512 571.733333l153.6 153.6 59.733333-59.733333L571.733333 512l153.6-153.6z" fill="#333333" p-id="3207" data-spm-anchor-id="a313x.7781069.0.i5" class="selected"></path></svg>