<?xml version="1.0" standalone="no"?><!DOCTYPE svg PUBLIC "-//W3C//DTD SVG 1.1//EN" "http://www.w3.org/Graphics/SVG/1.1/DTD/svg11.dtd"><svg t="1638323849719" class="icon" viewBox="0 0 1024 1024" version="1.1" xmlns="http://www.w3.org/2000/svg" p-id="13732" xmlns:xlink="http://www.w3.org/1999/xlink" width="200" height="200"><defs><style type="text/css"></style></defs><path d="M276.736 1024c-4.864 0-9.728-1.28-14.336-3.328-0.256 0-0.512-0.256-0.512-0.256-2.048-1.28-212.224-131.072-212.992-131.584-9.984-6.656-15.872-18.432-15.104-30.208 0.768-10.752 6.4-19.712 15.616-24.576l212.736-131.328c0.256 0 0.512-0.256 0.512-0.256 4.608-2.304 9.472-3.328 14.336-3.328 17.152 0 30.72 13.824 30.72 31.232v81.92c0 1.28 1.024 2.56 2.56 2.56H832c29.952 0 55.552-25.344 55.552-55.552v-231.168c0-27.904 21.76-49.664 49.664-49.664 28.16 0 49.664 22.528 49.664 52.224v231.168c0 40.192-15.872 78.08-44.8 107.264-28.928 28.928-67.072 44.8-107.264 44.8H309.76c-1.28 0-2.56 1.024-2.56 2.56v76.544c0.256 17.152-13.312 30.976-30.464 30.976zM84.224 551.168c-28.16 0-49.664-22.528-49.664-52.224v-231.168c0-40.192 15.872-78.08 44.8-107.264s67.328-44.8 107.52-44.8h527.36c1.28 0 2.56-1.024 2.56-2.56v-81.92C716.8 13.824 730.368 0 747.52 0c4.864 0 9.728 1.28 14.336 3.328 0.256 0 0.512 0.256 0.512 0.256 2.048 1.28 212.224 130.816 212.992 131.584 9.984 6.656 15.872 18.432 15.104 30.208-0.768 10.752-6.4 19.712-15.616 24.576l-212.736 131.328c-0.256 0-0.512 0.256-0.512 0.256-4.608 2.304-9.472 3.328-14.336 3.328-17.152 0-30.72-13.824-30.72-31.232V217.344c0-1.28-1.024-2.56-2.56-2.56H189.44c-29.952 0-55.552 25.344-55.552 55.552v231.168c0 27.904-21.76 49.664-49.664 49.664z" p-id="13733"></path></svg>